<svg aria-hidden="true" style="position: absolute; width: 0; height: 0; overflow: hidden;" version="1.1" xmlns="http://www.w3.org/2000/svg" xmlns:xlink="http://www.w3.org/1999/xlink">
<defs>
<symbol id="icon-banknote" viewBox="0 0 32 32">
<path d="M31.415 10.586l-10-10c-0.496-0.496-1.215-0.695-1.896-0.527-0.359 0.088-0.68 0.273-0.934 0.527-0.227 0.227-0.398 0.508-0.496 0.822-0.453 1.469-1.236 2.746-2.395 3.904-1.548 1.547-3.564 2.719-5.697 3.958-2.264 1.312-4.603 2.672-6.52 4.588-1.629 1.631-2.738 3.445-3.388 5.551-0.219 0.711-0.028 1.48 0.496 2.006l10 10c0.496 0.496 1.215 0.695 1.896 0.527 0.359-0.090 0.68-0.273 0.934-0.527 0.227-0.227 0.398-0.508 0.496-0.824 0.454-1.469 1.237-2.746 2.397-3.904 1.547-1.547 3.562-2.717 5.697-3.955 2.262-1.314 4.602-2.674 6.518-4.59 1.629-1.629 2.738-3.445 3.389-5.551 0.218-0.71 0.026-1.482-0.497-2.005zM12 30c-3.312-3.312-6.688-6.689-10-10 2.842-9.201 15.16-8.799 18-18 3.312 3.311 6.689 6.688 10.002 10-2.843 9.199-15.161 8.799-18.002 18zM19.562 14.9c-0.326-0.273-0.654-0.459-0.984-0.551-0.328-0.092-0.656-0.129-0.988-0.105-0.328 0.025-0.664 0.1-1 0.229-0.336 0.131-0.674 0.273-1.014 0.438-0.537-0.617-1.074-1.227-1.611-1.793 0.242-0.219 0.477-0.33 0.703-0.338 0.227-0.010 0.445 0.014 0.652 0.066 0.211 0.053 0.404 0.098 0.582 0.133 0.18 0.035 0.336-0.004 0.473-0.119 0.145-0.125 0.225-0.287 0.236-0.482 0.010-0.197-0.064-0.389-0.229-0.576-0.211-0.242-0.465-0.389-0.77-0.443-0.301-0.053-0.609-0.049-0.93 0.021-0.316 0.072-0.617 0.191-0.902 0.359s-0.514 0.34-0.684 0.508c-0.065-0.062-0.13-0.123-0.195-0.184-0.072-0.066-0.162-0.102-0.27-0.1-0.109 0-0.199 0.047-0.273 0.133-0.072 0.084-0.105 0.182-0.092 0.285 0.010 0.107 0.053 0.189 0.127 0.252 0.065 0.055 0.13 0.109 0.195 0.166-0.256 0.309-0.467 0.65-0.633 1.010-0.168 0.361-0.268 0.719-0.305 1.066-0.039 0.35-0.002 0.67 0.105 0.967 0.107 0.299 0.305 0.553 0.594 0.793 0.471 0.391 1.025 0.557 1.668 0.52 0.641-0.039 1.332-0.23 2.075-0.629 0.59 0.682 1.182 1.359 1.773 1.988-0.25 0.211-0.469 0.332-0.662 0.371-0.193 0.041-0.365 0.037-0.521-0.010-0.156-0.049-0.301-0.119-0.434-0.209-0.133-0.092-0.264-0.17-0.395-0.234-0.129-0.064-0.262-0.1-0.398-0.102s-0.281 0.064-0.441 0.201c-0.164 0.143-0.246 0.309-0.246 0.496s0.086 0.375 0.254 0.566c0.17 0.191 0.391 0.352 0.658 0.479s0.569 0.207 0.901 0.229c0.332 0.023 0.682-0.027 1.051-0.164 0.371-0.135 0.738-0.379 1.1-0.742 0.174 0.17 0.35 0.332 0.525 0.488 0.074 0.064 0.164 0.096 0.273 0.088 0.105-0.004 0.197-0.053 0.27-0.141 0.074-0.090 0.105-0.189 0.094-0.293-0.010-0.105-0.053-0.186-0.125-0.244-0.176-0.141-0.352-0.289-0.527-0.445 0.299-0.367 0.539-0.754 0.717-1.137 0.178-0.385 0.283-0.756 0.318-1.1 0.035-0.346-0.006-0.658-0.119-0.941-0.112-0.287-0.311-0.533-0.596-0.77zM13.971 15.578c-0.283 0.012-0.53-0.082-0.746-0.291-0.092-0.088-0.156-0.195-0.195-0.322-0.041-0.127-0.055-0.266-0.039-0.418 0.014-0.15 0.059-0.307 0.137-0.465 0.074-0.158 0.184-0.316 0.324-0.469 0.507 0.504 1.013 1.057 1.52 1.629-0.384 0.211-0.718 0.324-1.001 0.336zM18.688 17.58c-0.090 0.166-0.193 0.314-0.314 0.443-0.561-0.566-1.121-1.188-1.68-1.826 0.143-0.064 0.293-0.131 0.455-0.199s0.324-0.113 0.486-0.141c0.166-0.025 0.33-0.018 0.494 0.021 0.162 0.041 0.316 0.129 0.459 0.268 0.141 0.141 0.23 0.287 0.266 0.445 0.039 0.16 0.041 0.322 0.014 0.488-0.029 0.167-0.088 0.333-0.18 0.501zM14.717 22.18c0.197-0.159 0.487-0.151 0.668 0.033 0.196 0.195 0.196 0.514 0 0.709-0.016 0.016-0.033 0.027-0.051 0.041l0.002 0.002c-0.633 0.481-1.153 0.914-1.714 1.475-0.507 0.506-0.965 1.039-1.361 1.58l-0.639 0.875c-0.020 0.036-0.044 0.069-0.074 0.1-0.196 0.195-0.515 0.195-0.71 0-0.17-0.17-0.191-0.432-0.066-0.627l-0.002-0.002 0.684-0.934c0.427-0.584 0.918-1.156 1.461-1.699 0.565-0.567 1.175-1.073 1.8-1.553h0.002zM18.378 7.715c0.506-0.506 0.963-1.037 1.36-1.581l0.664-0.91c0.024-0.043 0.051-0.086 0.088-0.123 0.197-0.197 0.516-0.197 0.713 0 0.187 0.188 0.195 0.485 0.025 0.684l0.002 0.002-0.684 0.938c-0.428 0.584-0.918 1.154-1.461 1.697-0.565 0.565-1.174 1.073-1.799 1.553l-0.004-0.002c-0.199 0.183-0.508 0.179-0.699-0.014-0.197-0.197-0.197-0.518 0-0.715 0.035-0.037 0.076-0.063 0.117-0.086 0.588-0.449 1.155-0.92 1.678-1.443z"></path>
</symbol>
<symbol id="icon-notifications-outline" viewBox="0 0 20 20">
<path d="M6 8v7h8v-7c0-2.209-1.791-4-4-4s-4 1.791-4 4v0zM8.030 2.33c-0.016-0.095-0.025-0.204-0.025-0.315 0-1.105 0.895-2 2-2s2 0.895 2 2c0 0.111-0.009 0.22-0.027 0.327l0.002-0.012c2.361 0.843 4.020 3.060 4.020 5.664 0 0.002 0 0.004 0 0.006v-0 6l3 2v1h-18v-1l3-2v-6c0-0.001 0-0.002 0-0.003 0-2.608 1.664-4.827 3.988-5.654l0.042-0.013zM12 18c0 1.105-0.895 2-2 2s-2-0.895-2-2v0h4z"></path>
</symbol>
<symbol id="icon-calendar" viewBox="0 0 20 20">
<path d="M17 3h-1v2h-3v-2h-6v2h-3v-2h-1c-1.101 0-2 0.9-2 2v12c0 1.1 0.899 2 2 2h14c1.1 0 2-0.9 2-2v-12c0-1.1-0.9-2-2-2zM17 17h-14v-8h14v8zM6.5 1h-2v3.5h2v-3.5zM15.5 1h-2v3.5h2v-3.5z"></path>
</symbol>
<symbol id="icon-chat" viewBox="0 0 20 20">
<path d="M5.8 12.2v-6.2h-3.8c-1.1 0-2 0.9-2 2v6c0 1.1 0.9 2 2 2h1v3l3-3h5c1.1 0 2-0.9 2-2v-1.82c-0.064 0.014-0.132 0.021-0.2 0.021l-7-0.001zM18 1h-9c-1.1 0-2 0.9-2 2v8h7l3 3v-3h1c1.1 0 2-0.899 2-2v-6c0-1.1-0.9-2-2-2z"></path>
</symbol>
<symbol id="icon-home" viewBox="0 0 20 20">
<path d="M18.672 11h-1.672v6c0 0.445-0.194 1-1 1h-4v-6h-4v6h-4c-0.806 0-1-0.555-1-1v-6h-1.672c-0.598 0-0.47-0.324-0.060-0.748l8.024-8.032c0.195-0.202 0.451-0.302 0.708-0.312 0.257 0.010 0.513 0.109 0.708 0.312l8.023 8.031c0.411 0.425 0.539 0.749-0.059 0.749z"></path>
</symbol>
<symbol id="icon-location-pin" viewBox="0 0 20 20">
<path d="M10 2.009c-2.762 0-5 2.229-5 4.99 0 4.774 5 11 5 11s5-6.227 5-11c0-2.76-2.238-4.99-5-4.99zM10 9.76c-1.492 0-2.7-1.209-2.7-2.7s1.208-2.7 2.7-2.7c1.49 0 2.699 1.209 2.699 2.7s-1.209 2.7-2.699 2.7z"></path>
</symbol>
<symbol id="icon-clock" viewBox="0 0 32 32">
<path d="M20.586 23.414l-6.586-6.586v-8.828h4v7.172l5.414 5.414zM16 0c-8.837 0-16 7.163-16 16s7.163 16 16 16 16-7.163 16-16-7.163-16-16-16zM16 28c-6.627 0-12-5.373-12-12s5.373-12 12-12c6.627 0 12 5.373 12 12s-5.373 12-12 12z"></path>
</symbol>
</defs>
</svg>
